<?xml version="1.0" encoding="UTF-8"?>
<!-- Generator: visioncortex VTracer 0.6.4 -->
<svg version="1.1" xmlns="http://www.w3.org/2000/svg" width="352" height="352">
<path d="M0 0 C1.89 0.06 1.89 0.06 3.81 0.12 C4.06 0.76 4.31 1.4 4.56 2.06 C4.98 2.74 5.39 3.42 5.81 4.12 C6.45 4.25 7.09 4.37 7.75 4.5 C8.77 4.81 8.77 4.81 9.81 5.12 C10.23 6.05 10.65 6.97 11.08 7.91 C16.36 17.71 32.64 22.59 42.83 25.75 C61.19 31.16 76.62 31.12 94.75 25.81 C97.61 24.99 100.47 24.19 103.34 23.39 C104.04 23.19 104.74 22.99 105.47 22.79 C116.39 19.8 127.53 17.84 138.81 16.94 C139.78 16.86 140.74 16.78 141.73 16.7 C172.6 14.39 202.25 17.52 231.99 25.98 C242.54 28.97 251.78 31.48 262.81 30.12 C264.06 29.98 265.31 29.83 266.6 29.68 C286.57 26.81 306.5 18.88 319.55 3.3 C321.98 0.96 322.99 0.38 326.31 0.31 C329.81 1.13 329.81 1.13 331.81 3.12 C332.21 4.94 332.21 4.94 332.41 7.12 C332.53 8.3 332.53 8.3 332.65 9.5 C332.72 10.33 332.8 11.15 332.88 12 C333.03 13.62 333.19 15.25 333.35 16.87 C333.41 17.59 333.48 18.31 333.55 19.05 C333.82 21.16 334.14 23.1 334.81 25.12 C335.49 25.52 336.17 25.91 336.88 26.31 C339.19 28.48 339.18 29.11 339.31 32.19 C339.07 37.5 337.59 42.58 334.81 47.12 C333.49 47.8 332.15 48.47 330.81 49.12 C330.67 50.2 330.52 51.27 330.38 52.38 C329.65 57.22 328.28 58.74 324.81 62.12 C323.82 62.12 322.83 62.12 321.81 62.12 C321.74 62.71 321.67 63.29 321.59 63.88 C319.21 70.76 308.96 75.44 302.94 78.9 C301.19 79.91 299.49 81 297.81 82.12 C298.3 82.62 298.78 83.12 299.28 83.64 C309.32 94.39 315.44 106.24 319.81 120.12 C320.15 121.2 320.5 122.27 320.85 123.38 C327.4 148.25 322.15 175.35 309.94 197.56 C309.24 198.76 308.53 199.95 307.81 201.12 C308.23 201.67 308.64 202.22 309.06 202.79 C324.04 223.34 327.76 243.16 328.36 268.24 C328.42 270.34 328.47 272.43 328.53 274.53 C328.56 275.77 328.59 277.01 328.62 278.29 C328.49 281.03 328.49 281.03 329.81 282.12 C329.94 283.7 329.99 285.29 330 286.88 C330.01 287.74 330.03 288.6 330.04 289.48 C329.79 292.42 329.02 294.45 327.81 297.12 C327.42 298.07 327.03 299.01 326.63 299.98 C326.22 300.94 325.8 301.89 325.38 302.88 C324.96 303.84 324.55 304.8 324.13 305.8 C322.81 308.12 322.81 308.12 319.81 309.12 C319.71 310.42 319.61 311.72 319.5 313.06 C318.54 321.49 315.65 328.21 310.81 335.12 C310.3 335.86 309.79 336.6 309.26 337.37 C305.23 342.98 305.23 342.98 301.81 344.12 C301.1 346.11 300.43 348.11 299.81 350.12 C297.36 352.58 296.72 352.38 293.36 352.38 C292.42 352.39 291.47 352.39 290.5 352.4 C289.46 352.39 288.42 352.39 287.34 352.39 C286.24 352.39 285.14 352.39 284 352.4 C280.28 352.41 276.57 352.4 272.85 352.4 C270.19 352.4 267.54 352.41 264.88 352.42 C258.4 352.43 251.92 352.43 245.44 352.43 C240.18 352.43 234.91 352.43 229.65 352.43 C228.53 352.43 228.53 352.43 227.38 352.43 C225.86 352.43 224.34 352.44 222.82 352.44 C208.56 352.45 194.29 352.45 180.03 352.44 C166.97 352.43 153.91 352.45 140.85 352.46 C127.45 352.48 114.05 352.49 100.65 352.49 C93.13 352.49 85.6 352.49 78.07 352.5 C71.66 352.52 65.26 352.52 58.85 352.5 C55.58 352.5 52.31 352.5 49.03 352.51 C45.49 352.52 41.95 352.51 38.41 352.5 C36.85 352.51 36.85 352.51 35.26 352.52 C34.31 352.51 33.37 352.51 32.39 352.5 C31.17 352.5 31.17 352.5 29.91 352.5 C27.28 352.03 26.38 351.27 24.81 349.12 C24.81 348.13 24.81 347.14 24.81 346.12 C24.03 345.92 23.24 345.71 22.44 345.5 C18.91 343.65 18.98 341.8 17.81 338.12 C16.48 337.79 15.15 337.46 13.81 337.12 C8.74 329.04 5.41 318.68 5.81 309.12 C4.92 308.78 4.92 308.78 4 308.44 C-1.02 305.43 -2.17 299.57 -3.73 294.27 C-4.26 291.78 -4.32 289.48 -4.31 286.94 C-4.32 286.06 -4.32 285.18 -4.32 284.27 C-4.19 282.12 -4.19 282.12 -3.19 281.12 C-3.06 279.03 -3.01 276.94 -2.98 274.84 C-2.94 272.88 -2.94 272.88 -2.9 270.88 C-2.88 269.83 -2.88 269.83 -2.86 268.77 C-2.32 242.83 2.26 222.44 17.81 201.12 C17.29 200.14 16.77 199.16 16.24 198.15 C7.64 181.63 2.4 165.63 2.5 146.81 C2.51 145.71 2.51 144.61 2.52 143.48 C2.85 121.37 10.69 102.06 25.05 85.38 C27.02 83.34 27.02 83.34 26.81 81.12 C26.26 80.83 25.7 80.54 25.12 80.24 C19.63 77.29 14.69 74 9.81 70.12 C9.21 69.67 8.6 69.21 7.98 68.74 C6.53 67.61 5.16 66.37 3.81 65.12 C3.81 64.14 3.81 63.15 3.81 62.12 C3.26 62.08 2.7 62.04 2.12 62 C-3.53 59.86 -6.45 53.18 -8.94 48 C-9.39 47.09 -9.39 47.09 -9.86 46.16 C-12.22 41.34 -13.33 37.71 -13.25 32.38 C-13.24 31.58 -13.23 30.78 -13.22 29.95 C-13.21 29.35 -13.2 28.75 -13.19 28.12 C-11.87 27.46 -10.55 26.8 -9.19 26.12 C-9.21 24.81 -9.23 23.5 -9.26 22.14 C-9.28 20.41 -9.29 18.67 -9.31 16.94 C-9.34 15.64 -9.34 15.64 -9.36 14.32 C-9.43 5.94 -9.43 5.94 -7.19 2.12 C-4.1 0.07 -3.48 -0.11 0 0 Z " fill="#FDFDFD" transform="translate(13.1875,-0.125)"/>
<path d="M0 0 C1.61 2.5 1.61 2.5 3.19 5.56 C3.72 6.57 4.25 7.59 4.79 8.63 C5.19 9.41 5.59 10.19 6 11 C6.66 11 7.32 11 8 11 C9.28 9.05 10.48 7.04 11.62 5 C12.57 3.33 12.57 3.33 13.54 1.62 C14.02 0.76 14.5 -0.11 15 -1 C25.42 2.26 33.78 7.92 42 15 C42.85 15.71 43.69 16.43 44.57 17.16 C61.51 31.83 73.95 53.65 76.79 76.12 C77.96 92.41 76.41 109.19 69 124 C28.08 124 -12.84 124 -55 124 C-65.11 98.73 -65.39 75.01 -54.79 49.81 C-51.24 41.71 -46.69 34.74 -41 28 C-40.03 26.81 -40.03 26.81 -39.05 25.61 C-30.8 15.91 -20.97 8.31 -9.81 2.25 C-9.18 1.9 -8.54 1.55 -7.89 1.2 C-3.38 -1.13 -3.38 -1.13 0 0 Z " fill="#020202" transform="translate(169,228)"/>
<path d="M0 0 C0.52 0.43 1.04 0.86 1.58 1.3 C8.87 7.36 15.16 13.77 20 22 C20.46 22.78 20.92 23.55 21.39 24.35 C30.27 40.73 32.14 60.41 26.88 78.31 C24.78 84.77 22 90.52 18 96 C17.41 96.83 16.83 97.66 16.23 98.51 C5.04 113.44 -10.63 122.32 -29 125 C-48.18 126.89 -66.12 121.83 -81.44 110.12 C-94.92 98.52 -104.28 84.41 -106.41 66.54 C-106.89 48.5 -99.32 31.03 -87 18 C-68.82 -0.91 -22.85 -19.6 0 0 Z " fill="#010101" transform="translate(286,88)"/>
<path d="M0 0 C1.13 0 2.26 0.01 3.43 0.01 C12.07 0.13 19.9 1 28.25 3.31 C29.37 3.6 30.5 3.89 31.66 4.19 C50.33 9.4 65.72 21.39 75.5 38.12 C83.14 51.69 87.02 67.06 82.82 82.38 C76.63 102.64 62.83 115.63 44.85 125.65 C29.51 133.24 10.18 133.43 -5.89 128.31 C-13.39 125.66 -19.55 122.28 -25.75 117.31 C-26.53 116.69 -27.31 116.07 -28.12 115.44 C-40.62 104.98 -49.45 89.01 -51 72.69 C-51.8 59.71 -50.78 48.33 -45.75 36.31 C-45.17 34.9 -45.17 34.9 -44.59 33.46 C-41.64 26.98 -37.43 21.65 -32.75 16.31 C-32.19 15.67 -31.64 15.03 -31.07 14.38 C-26.33 9.29 -20.67 5.88 -14.75 2.31 C-10.13 -0.77 -5.44 -0.03 0 0 Z " fill="#010101" transform="translate(87.75,81.6875)"/>
<path d="M0 0 C1.89 0.06 1.89 0.06 3.81 0.12 C4.06 0.76 4.31 1.4 4.56 2.06 C4.98 2.74 5.39 3.42 5.81 4.12 C6.45 4.25 7.09 4.37 7.75 4.5 C8.77 4.81 8.77 4.81 9.81 5.12 C10.23 6.05 10.65 6.97 11.08 7.91 C16.36 17.71 32.64 22.59 42.83 25.75 C61.19 31.16 76.62 31.12 94.75 25.81 C97.61 24.99 100.47 24.19 103.34 23.39 C104.04 23.19 104.74 22.99 105.47 22.79 C116.39 19.8 127.53 17.84 138.81 16.94 C139.78 16.86 140.74 16.78 141.73 16.7 C172.6 14.39 202.25 17.52 231.99 25.98 C242.54 28.97 251.78 31.48 262.81 30.12 C264.06 29.98 265.31 29.83 266.6 29.68 C286.57 26.81 306.5 18.88 319.55 3.3 C321.98 0.96 322.99 0.38 326.31 0.31 C329.81 1.13 329.81 1.13 331.81 3.12 C332.21 4.94 332.21 4.94 332.41 7.12 C332.53 8.3 332.53 8.3 332.65 9.5 C332.72 10.33 332.8 11.15 332.88 12 C333.03 13.62 333.19 15.25 333.35 16.87 C333.41 17.59 333.48 18.31 333.55 19.05 C333.82 21.16 334.14 23.1 334.81 25.12 C335.49 25.52 336.17 25.91 336.88 26.31 C339.19 28.48 339.18 29.11 339.31 32.19 C339.07 37.5 337.59 42.58 334.81 47.12 C333.49 47.8 332.15 48.47 330.81 49.12 C330.67 50.2 330.52 51.27 330.38 52.38 C329.65 57.22 328.28 58.74 324.81 62.12 C323.82 62.12 322.83 62.12 321.81 62.12 C321.74 62.71 321.67 63.29 321.59 63.88 C319.21 70.76 308.96 75.44 302.94 78.9 C301.19 79.91 299.49 81 297.81 82.12 C298.3 82.62 298.78 83.12 299.28 83.64 C309.32 94.39 315.44 106.24 319.81 120.12 C320.15 121.2 320.5 122.27 320.85 123.38 C327.4 148.25 322.15 175.35 309.94 197.56 C309.24 198.76 308.53 199.95 307.81 201.12 C308.23 201.67 308.64 202.22 309.06 202.79 C324.04 223.34 327.76 243.16 328.36 268.24 C328.42 270.34 328.47 272.43 328.53 274.53 C328.56 275.77 328.59 277.01 328.62 278.29 C328.49 281.03 328.49 281.03 329.81 282.12 C329.94 283.7 329.99 285.29 330 286.88 C330.01 287.74 330.03 288.6 330.04 289.48 C329.79 292.42 329.02 294.45 327.81 297.12 C327.42 298.07 327.03 299.01 326.63 299.98 C326.22 300.94 325.8 301.89 325.38 302.88 C324.96 303.84 324.55 304.8 324.13 305.8 C322.81 308.12 322.81 308.12 319.81 309.12 C319.71 310.42 319.61 311.72 319.5 313.06 C318.54 321.49 315.65 328.21 310.81 335.12 C310.3 335.86 309.79 336.6 309.26 337.37 C305.23 342.98 305.23 342.98 301.81 344.12 C301.1 346.11 300.43 348.11 299.81 350.12 C297.81 352.12 297.81 352.12 295.65 352.32 C294.43 352.29 294.43 352.29 293.19 352.25 C292.37 352.23 291.55 352.21 290.71 352.2 C289.77 352.16 289.77 352.16 288.81 352.12 C289.07 351.55 289.34 350.97 289.61 350.37 C290.8 347.73 291.99 345.08 293.19 342.44 C293.6 341.53 294.01 340.61 294.44 339.67 C295.04 338.34 295.04 338.34 295.65 336.99 C296.02 336.18 296.38 335.36 296.76 334.53 C297.83 332.08 298.83 329.61 299.81 327.12 C300.14 327.12 300.47 327.12 300.81 327.12 C300.81 330.43 300.81 333.73 300.81 337.12 C309.54 324.74 312.01 309.99 313.36 295.15 C313.81 292.12 313.81 292.12 315.81 290.12 C316.14 294.08 316.47 298.05 316.81 302.12 C317.47 302.12 318.13 302.12 318.81 302.12 C319.13 300.46 319.44 298.79 319.75 297.12 C320.01 295.73 320.01 295.73 320.28 294.31 C324.91 266.7 322.67 235.81 306.81 212.12 C304.92 209.71 303.02 207.36 300.96 205.09 C299.81 203.12 299.81 203.12 299.86 200.88 C301.19 197.04 303.13 193.66 305.12 190.12 C309.01 183.01 311.96 176.06 313.81 168.12 C314.07 167.04 314.07 167.04 314.34 165.93 C319.47 142.76 315.15 120.04 302.96 99.93 C298.45 92.86 292.86 86.89 286.81 81.12 C285.81 80.13 284.81 79.13 283.81 78.12 C284.84 77.63 285.87 77.13 286.93 76.62 C306.62 67.01 321.45 57.03 329.81 36.12 C329.81 35.13 329.81 34.15 329.81 33.12 C329.27 33.69 328.73 34.26 328.17 34.84 C327.45 35.57 326.74 36.31 326 37.06 C325.29 37.79 324.58 38.52 323.86 39.28 C321.81 41.12 321.81 41.12 318.81 42.12 C319.1 41.56 319.39 40.99 319.68 40.41 C320.79 38.16 321.85 35.91 322.88 33.62 C323.39 32.5 323.39 32.5 323.91 31.34 C325.75 26.82 325.95 22.96 325.94 18.06 C325.94 16.22 325.94 16.22 325.95 14.34 C325.96 11.11 325.96 11.11 324.81 8.12 C324.33 8.75 323.84 9.38 323.34 10.03 C309.2 27.09 284.27 34.9 262.81 37.12 C250.89 37.95 240.83 36.36 229.43 33.02 C225.29 31.81 221.13 30.68 216.96 29.55 C216.16 29.33 215.36 29.11 214.53 28.88 C205.72 26.5 196.89 25.03 187.81 24.12 C187.08 24.04 186.35 23.95 185.6 23.86 C161.14 21.04 135.96 22.69 112.18 28.77 C110.74 29.14 110.74 29.14 109.27 29.51 C104.44 30.76 99.63 32.03 94.82 33.36 C68.14 40.59 42.34 36.76 18.19 23.19 C11.51 19.17 5.18 14.68 0.81 8.12 C-2.35 17.62 -0.13 27.28 3.81 36.12 C4.48 37.79 5.15 39.46 5.81 41.12 C1.83 38.96 -1.08 36.41 -4.19 33.12 C-3.04 43.03 2.53 51.55 9.81 58.12 C9.81 58.78 9.81 59.45 9.81 60.12 C10.67 60.52 10.67 60.52 11.54 60.93 C13.95 62.2 16 63.68 18.19 65.31 C24.37 69.71 30.98 72.86 37.81 76.12 C39.15 76.79 40.48 77.45 41.81 78.12 C41.15 78.78 40.49 79.44 39.81 80.12 C39.36 80.59 38.9 81.05 38.43 81.52 C37.28 82.66 36.12 83.78 34.95 84.89 C18.97 100.21 9.95 121.11 9.27 143.15 C9.13 162.46 13.8 178.95 23.58 195.65 C24.89 198.28 25.68 200.18 25.81 203.12 C24.44 205.24 24.44 205.24 22.38 207.44 C4.91 228.02 2.03 257.09 3.81 283.12 C4.52 289.51 5.61 295.82 6.81 302.12 C7.47 302.12 8.13 302.12 8.81 302.12 C9.31 296.19 9.31 296.19 9.81 290.12 C11.42 293.34 12.08 294.78 12.49 298.11 C12.59 298.87 12.69 299.63 12.8 300.42 C12.91 301.23 13.01 302.04 13.12 302.88 C14.9 315.04 17.45 327.02 24.81 337.12 C24.81 333.82 24.81 330.52 24.81 327.12 C27.01 329.32 27.75 331 28.94 333.84 C29.34 334.78 29.73 335.71 30.14 336.67 C30.55 337.64 30.95 338.62 31.38 339.62 C32.19 341.55 33 343.48 33.82 345.41 C34.36 346.69 34.36 346.69 34.9 348 C35.5 349.39 36.14 350.77 36.81 352.12 C35.38 352.21 33.94 352.26 32.5 352.31 C31.7 352.35 30.9 352.38 30.07 352.42 C27.81 352.12 27.81 352.12 26.02 350.8 C24.81 349.12 24.81 349.12 24.81 346.12 C24.03 345.92 23.24 345.71 22.44 345.5 C18.91 343.65 18.98 341.8 17.81 338.12 C16.48 337.79 15.15 337.46 13.81 337.12 C8.74 329.04 5.41 318.68 5.81 309.12 C4.92 308.78 4.92 308.78 4 308.44 C-1.02 305.43 -2.17 299.57 -3.73 294.27 C-4.26 291.78 -4.32 289.48 -4.31 286.94 C-4.32 286.06 -4.32 285.18 -4.32 284.27 C-4.19 282.12 -4.19 282.12 -3.19 281.12 C-3.06 279.03 -3.01 276.94 -2.98 274.84 C-2.94 272.88 -2.94 272.88 -2.9 270.88 C-2.88 269.83 -2.88 269.83 -2.86 268.77 C-2.32 242.83 2.26 222.44 17.81 201.12 C17.29 200.14 16.77 199.16 16.24 198.15 C7.64 181.63 2.4 165.63 2.5 146.81 C2.51 145.71 2.51 144.61 2.52 143.48 C2.85 121.37 10.69 102.06 25.05 85.38 C27.02 83.34 27.02 83.34 26.81 81.12 C26.26 80.83 25.7 80.54 25.12 80.24 C19.63 77.29 14.69 74 9.81 70.12 C9.21 69.67 8.6 69.21 7.98 68.74 C6.53 67.61 5.16 66.37 3.81 65.12 C3.81 64.14 3.81 63.15 3.81 62.12 C3.26 62.08 2.7 62.04 2.12 62 C-3.53 59.86 -6.45 53.18 -8.94 48 C-9.39 47.09 -9.39 47.09 -9.86 46.16 C-12.22 41.34 -13.33 37.71 -13.25 32.38 C-13.24 31.58 -13.23 30.78 -13.22 29.95 C-13.21 29.35 -13.2 28.75 -13.19 28.12 C-11.87 27.46 -10.55 26.8 -9.19 26.12 C-9.21 24.81 -9.23 23.5 -9.26 22.14 C-9.28 20.41 -9.29 18.67 -9.31 16.94 C-9.34 15.64 -9.34 15.64 -9.36 14.32 C-9.43 5.94 -9.43 5.94 -7.19 2.12 C-4.1 0.07 -3.48 -0.11 0 0 Z " fill="#020202" transform="translate(13.1875,-0.125)"/>
<path d="M0 0 C9.67 4.96 15 11.79 18.94 21.82 C20.74 31.89 19.39 41 14.02 49.87 C8.31 57.65 1.22 63.53 -8.43 65.32 C-19.91 66.48 -28.71 64.11 -37.69 56.88 C-44.31 50.95 -48.93 43.36 -49.67 34.43 C-49.94 22.68 -47.22 15.16 -39.08 6.59 C-27.93 -2.97 -13.6 -5.68 0 0 Z " fill="#FBFBFB" transform="translate(256.43359375,117.68359375)"/>
<path d="M0 0 C7.82 5.54 13.41 12.22 15.75 21.64 C16.96 31.75 14.8 39.08 10 47.83 C4.29 54.97 -3.09 60.89 -12.25 62.64 C-24.1 63.54 -32.14 61.73 -41.41 54.32 C-48.59 47.79 -52.35 39.59 -53.6 29.97 C-53.95 20.27 -50.4 12.05 -44.25 4.64 C-32.08 -7.37 -14.42 -8.67 0 0 Z " fill="#FBFBFB" transform="translate(129.25390625,120.35546875)"/>
<path d="M0 0 C6.53 4.57 9.72 13.08 12.12 20.44 C11.67 33.4 4.13 44.96 -2 56 C-5 55 -5 55 -6.32 52.9 C-6.75 51.99 -7.18 51.09 -7.63 50.15 C-8.11 49.15 -8.58 48.16 -9.08 47.13 C-9.57 46.07 -10.06 45.02 -10.56 43.94 C-11.06 42.91 -11.55 41.89 -12.06 40.83 C-19.14 25.87 -19.14 25.87 -17 17 C-15.97 14.48 -14.93 12.15 -13.69 9.75 C-13.39 9.14 -13.1 8.53 -12.79 7.9 C-9.8 1.98 -6.88 -1.12 0 0 Z " fill="#010101" transform="translate(179,173)"/>
<path d="M0 0 C4.78 2.43 7.6 5.2 10 10 C10.81 16.39 9.77 19.8 6 25 C2.23 28.44 -1.66 28.52 -6.56 28.35 C-10.25 27.82 -12.29 26.51 -15 24 C-18.06 19.51 -18.93 15.3 -18 10 C-14.42 2.54 -8.27 -1.2 0 0 Z " fill="#030303" transform="translate(245,133)"/>
<path d="M0 0 C5.25 1.96 8.54 4.88 11 10 C11.93 15.3 11.06 19.51 8 24 C4.48 27.26 1.7 28.29 -3 28.5 C-7.7 28.29 -10.48 27.26 -14 24 C-17.06 19.52 -17.94 15.3 -17 10 C-13.4 2.79 -8.19 -1.15 0 0 Z " fill="#030303" transform="translate(114,133)"/>
<path d="M0 0 C2.38 0.95 3.73 1.57 5.11 3.77 C7.19 9 6.61 14.54 4.5 19.62 C4 20.41 3.51 21.19 3 22 C1.68 22 0.36 22 -1 22 C-4.3 16.78 -4.93 12.02 -4 6 C-2.9 3.6 -1.72 2.04 0 0 Z " fill="#FAFAFA" transform="translate(175,311)"/>
<path d="M0 0 C2.38 0.95 3.73 1.57 5.11 3.77 C6.89 8.22 6.96 13.5 5.24 17.98 C4.25 19.62 4.25 19.62 2 22 C0.68 22 -0.64 22 -2 22 C-4.8 17.21 -4.65 12.4 -4 7 C-2.93 4.3 -1.7 2.39 0 0 Z " fill="#F5F5F5" transform="translate(191,284)"/>
<path d="M0 0 C3 1 3 1 4.69 3.38 C6.48 8.31 6.62 12.8 6 18 C4.5 21.19 4.5 21.19 3 23 C0.45 22.03 -0.95 21.06 -2.75 19 C-4.57 14.64 -4.71 10.65 -4 6 C-2.9 3.6 -1.72 2.04 0 0 Z " fill="#F5F5F5" transform="translate(159,284)"/>
<path d="M0 0 C2.61 0.96 3.79 1.66 5.25 4.06 C6.7 9.76 6.89 14.26 4.19 19.56 C3.47 20.37 2.74 21.17 2 22 C-1 22 -1 22 -2.66 20.37 C-5.17 15.93 -4.63 10.94 -4 6 C-2.93 3.48 -1.84 2.07 0 0 Z " fill="#F7F7F7" transform="translate(206,310)"/>
<path d="M0 0 C2.33 0.93 3.72 1.57 5.11 3.71 C6.89 8.28 6.67 13.2 6 18 C4.56 20.44 3.36 21.35 1 23 C-3.59 17.38 -4.71 14.22 -4 7 C-1.91 1.91 -1.91 1.91 0 0 Z " fill="#F7F7F7" transform="translate(144,310)"/>
<path d="M0 0 C0.99 0 1.98 0 3 0 C6.66 3.93 6.44 8.31 6.29 13.39 C5.93 16.64 5.28 18.64 3 21 C1.68 21 0.36 21 -1 21 C-4.49 17.26 -4.44 13.24 -4.3 8.38 C-3.86 4.86 -2.48 2.48 0 0 Z " fill="#F7F7F7" transform="translate(221,284)"/>
<path d="M0 0 C2.81 0.29 3.83 0.82 5.75 2.94 C7.54 7.33 7.71 11.32 7 16 C5.9 18.4 4.72 19.96 3 22 C0.65 21.06 -0.73 20.43 -2.11 18.26 C-3.78 14.01 -3.46 9.49 -3 5 C-1.5 1.81 -1.5 1.81 0 0 Z " fill="#F7F7F7" transform="translate(128,284)"/>
<path d="M0 0 C0.99 0 1.98 0 3 0 C4.05 3.15 4.1 5.39 4.06 8.69 C4.05 9.68 4.04 10.68 4.04 11.7 C4.02 12.46 4.01 13.22 4 14 C1.03 14 -1.94 14 -5 14 C-5.3 8.98 -5.03 6.08 -2 2 C-1.34 1.34 -0.68 0.68 0 0 Z " fill="#FAFAFA" transform="translate(214,338)"/>
<path d="M0 0 C3.26 0.56 4.91 1.41 7 4 C8.16 7.47 8.07 10.36 8 14 C5.03 14 2.06 14 -1 14 C-1.03 12.23 -1.05 10.46 -1.06 8.69 C-1.07 7.7 -1.09 6.72 -1.1 5.7 C-1 3 -1 3 0 0 Z " fill="#FAFAFA" transform="translate(135,338)"/>
<path d="M0 0 C1.94 0.38 1.94 0.38 4 1 C5.71 4.43 5.05 8.22 5 12 C2.03 12 -0.94 12 -4 12 C-4.5 6.71 -3.19 4.19 0 0 Z " fill="#F9F9F9" transform="translate(190,340)"/>
<path d="M0 0 C1.81 0.19 1.81 0.19 4 1 C6.93 4.66 7.32 7.38 7 12 C4.03 12 1.06 12 -2 12 C-2.25 3.38 -2.25 3.38 0 0 Z " fill="#F9F9F9" transform="translate(159,340)"/>
</svg>
