<?xml version="1.0" standalone="no"?>
<!DOCTYPE svg PUBLIC "-//W3C//DTD SVG 20010904//EN"
 "http://www.w3.org/TR/2001/REC-SVG-20010904/DTD/svg10.dtd">
<svg version="1.0" xmlns="http://www.w3.org/2000/svg"
 width="342.000000pt" height="442.000000pt" viewBox="0 0 342.000000 442.000000"
 preserveAspectRatio="xMidYMid meet">

<g transform="translate(0.000000,442.000000) scale(0.100000,-0.100000)"
fill="#000000" stroke="none">
<path d="M3280 4329 c-131 -133 -403 -229 -647 -229 -80 0 -118 6 -241 40
-517 142 -847 142 -1364 0 -123 -34 -161 -40 -241 -40 -242 0 -517 97 -644
227 -29 29 -54 53 -56 53 -3 0 -7 -18 -11 -40 -9 -58 11 -164 42 -224 36 -68
35 -66 23 -66 -5 0 -32 22 -59 48 l-50 49 13 -43 c33 -111 121 -223 237 -302
50 -34 172 -95 209 -105 22 -6 21 -8 -16 -37 -59 -47 -175 -197 -212 -275 -76
-160 -107 -345 -84 -494 17 -111 68 -253 123 -344 26 -44 48 -84 48 -89 0 -5
-21 -36 -46 -69 -68 -88 -130 -214 -155 -309 -30 -121 -39 -435 -14 -544 9
-42 20 -76 25 -76 5 0 12 29 15 65 8 71 25 79 25 11 0 -54 25 -189 50 -276 16
-54 71 -160 83 -160 2 0 0 25 -3 55 -4 32 -2 54 3 52 5 -1 24 -41 41 -87 41
-110 80 -180 121 -220 l33 -32 -9 48 c-8 44 -2 76 9 45 11 -32 125 -192 153
-216 37 -31 45 -27 31 14 -15 44 -1 38 38 -14 59 -79 176 -160 304 -211 l68
-27 -7 -51 c-5 -28 -11 -71 -14 -96 -6 -42 -8 -45 -41 -51 -49 -8 -93 -33
-125 -71 -40 -47 -48 -77 -36 -120 11 -36 61 -88 85 -88 7 0 21 20 30 45 13
32 25 47 43 51 29 8 73 -10 73 -29 0 -7 13 -27 29 -45 52 -57 93 -43 143 47
34 62 108 30 108 -46 0 -39 10 -41 64 -9 54 32 90 95 82 141 -11 56 -49 92
-125 116 -65 21 -69 24 -81 62 -6 21 -9 41 -7 43 2 3 42 -13 88 -34 102 -47
189 -124 239 -211 19 -33 37 -61 40 -61 3 0 21 28 40 61 50 87 133 160 237
209 47 22 88 38 90 36 3 -2 -1 -22 -8 -45 -11 -36 -17 -41 -48 -47 -83 -15
-145 -66 -157 -129 -8 -46 28 -110 82 -141 54 -32 64 -30 64 9 0 76 74 108
108 46 50 -90 91 -104 143 -47 16 18 29 38 29 45 0 19 44 37 73 29 18 -4 30
-19 43 -51 9 -25 23 -45 30 -45 24 0 74 52 85 89 9 32 8 44 -6 75 -23 49 -76
93 -127 107 -24 6 -48 13 -54 14 -6 2 -17 39 -24 82 -19 119 -20 113 30 132
136 53 276 146 334 222 36 47 49 50 34 8 -16 -47 -2 -46 44 1 38 40 130 173
141 203 10 29 16 -4 8 -47 l-9 -48 33 32 c40 39 82 115 125 228 17 45 35 82
39 82 4 0 4 -25 1 -55 -5 -45 -4 -52 8 -43 49 41 122 294 122 424 0 68 17 60
25 -11 3 -36 10 -65 15 -65 5 0 16 34 25 76 25 109 16 423 -14 544 -25 95 -87
221 -155 309 -25 33 -46 64 -46 69 0 5 22 45 48 89 55 91 106 233 123 344 31
200 -38 461 -165 623 -25 33 -46 63 -46 67 0 5 -28 31 -61 59 -55 46 -59 52
-40 57 37 10 160 71 209 105 116 79 204 191 237 302 l13 43 -50 -49 c-43 -42
-77 -63 -66 -40 69 137 83 196 68 292 l-5 35 -55 -56z m-2268 -694 c282 -42
485 -186 595 -423 112 -240 66 -471 -132 -667 -150 -149 -327 -215 -537 -202
-265 17 -494 193 -585 449 -19 55 -27 100 -30 185 -7 141 12 231 74 355 70
140 222 284 326 308 53 13 187 11 289 -5z m1748 -21 c30 -16 91 -65 136 -109
64 -64 90 -98 126 -172 63 -125 82 -215 75 -356 -3 -85 -11 -130 -30 -185 -91
-256 -320 -432 -585 -449 -210 -13 -387 53 -537 202 -198 196 -244 427 -132
667 134 288 414 443 782 435 100 -3 115 -6 165 -33z m-996 -903 c30 -25 86
-151 86 -192 0 -20 -7 -56 -15 -80 -21 -59 -117 -259 -125 -259 -8 0 -104 200
-125 259 -23 66 -19 109 19 186 53 112 101 137 160 86z m-102 -573 c19 -34 39
-63 45 -65 7 -3 25 20 42 49 16 29 34 59 38 67 7 11 24 6 90 -28 346 -180 564
-569 524 -933 -12 -106 -30 -173 -73 -273 -66 -153 -158 -261 -355 -417 -67
-54 -154 -127 -192 -164 l-71 -66 -71 66 c-38 37 -125 110 -192 164 -197 156
-289 264 -355 417 -43 100 -61 167 -73 273 -33 298 107 620 360 823 69 56 218
148 243 149 3 0 21 -28 40 -62z m-399 -1769 c14 -6 31 -23 38 -38 23 -45 41
-60 78 -67 58 -9 70 -14 101 -41 32 -27 38 -59 19 -96 -11 -21 -28 -37 -39
-37 -3 0 -14 16 -25 36 -35 65 -108 84 -144 38 -12 -15 -21 -32 -21 -39 0 -19
-47 -57 -66 -53 -10 2 -32 28 -49 58 -26 47 -35 55 -63 58 -42 4 -78 -19 -99
-63 -16 -33 -18 -34 -35 -18 -52 47 22 153 107 153 39 0 62 16 81 56 16 33 54
63 81 64 7 0 23 -5 36 -11z m966 -4 c16 -8 36 -30 45 -49 19 -40 42 -56 81
-56 85 0 159 -106 107 -153 -17 -16 -19 -15 -35 18 -21 44 -57 67 -99 63 -28
-3 -37 -11 -63 -58 -17 -30 -39 -56 -49 -58 -19 -4 -66 34 -66 53 0 7 -9 24
-21 39 -36 46 -109 27 -144 -38 -11 -20 -22 -36 -25 -36 -11 0 -28 16 -39 37
-19 37 -13 69 19 96 31 27 43 32 101 41 37 7 55 22 78 67 22 45 64 58 110 34z"/>
<path d="M967 3310 c-93 -24 -171 -85 -218 -172 -31 -58 -34 -70 -33 -148 0
-105 29 -176 101 -248 75 -74 130 -97 238 -97 79 0 96 4 143 28 76 40 129 92
165 161 28 54 32 70 32 146 0 73 -4 93 -28 141 -54 111 -169 187 -294 194 -37
2 -85 0 -106 -5z m153 -189 c75 -39 102 -130 60 -198 -54 -89 -200 -82 -244
11 -33 70 -10 146 56 186 41 25 83 25 128 1z"/>
<path d="M2279 3307 c-100 -29 -190 -104 -232 -195 -16 -36 -21 -67 -21 -132
-1 -76 3 -91 31 -146 36 -69 89 -121 165 -161 47 -24 64 -28 143 -28 108 0
163 23 238 97 72 72 101 143 101 248 1 78 -2 90 -33 148 -58 107 -156 170
-279 178 -39 2 -86 -2 -113 -9z m149 -187 c124 -76 75 -260 -69 -260 -149 0
-192 191 -59 261 45 24 87 24 128 -1z"/>
<path d="M1215 1594 c-22 -47 -17 -135 10 -164 10 -11 22 -20 27 -20 19 0 48
67 48 110 0 49 -30 110 -54 110 -7 0 -21 -16 -31 -36z"/>
<path d="M1520 1598 c-36 -59 -20 -161 30 -188 16 -9 22 -6 35 21 9 17 17 50
17 74 0 43 -34 125 -52 125 -6 0 -19 -15 -30 -32z"/>
<path d="M1839 1589 c-25 -50 -27 -115 -4 -158 13 -27 19 -30 35 -21 50 27 66
129 30 188 -11 17 -24 32 -30 32 -5 0 -19 -19 -31 -41z"/>
<path d="M2140 1598 c-12 -20 -20 -51 -20 -78 0 -43 29 -110 48 -110 23 0 46
44 50 94 5 58 -19 126 -44 126 -8 0 -23 -15 -34 -32z"/>
<path d="M1374 1344 c-37 -55 -27 -155 19 -193 12 -10 19 -7 36 18 28 39 29
123 1 169 -24 39 -34 40 -56 6z"/>
<path d="M1990 1338 c-28 -46 -27 -130 1 -169 17 -25 24 -28 36 -18 44 37 56
119 25 178 -23 47 -38 49 -62 9z"/>
<path d="M1680 1328 c-12 -20 -20 -51 -20 -78 0 -51 28 -115 50 -115 22 0 50
64 50 115 0 45 -29 110 -50 110 -6 0 -19 -15 -30 -32z"/>
<path d="M1290 1041 c-10 -44 -9 -54 10 -99 12 -28 30 -58 40 -67 17 -16 19
-15 30 5 7 14 11 50 8 91 -3 55 -8 73 -28 94 -34 36 -46 31 -60 -24z"/>
<path d="M2070 1065 c-20 -21 -25 -39 -28 -94 -3 -41 1 -77 8 -91 11 -20 13
-21 30 -5 10 9 28 39 40 67 19 45 20 55 10 99 -14 55 -26 60 -60 24z"/>
<path d="M1529 1048 c-21 -40 -15 -111 15 -161 15 -26 31 -47 35 -47 15 0 31
60 31 114 0 86 -53 147 -81 94z"/>
<path d="M1830 1038 c-13 -22 -20 -51 -20 -84 0 -54 16 -114 31 -114 4 0 20
21 35 47 20 33 28 59 27 93 -1 88 -37 116 -73 58z"/>
</g>
</svg>
